<svg width="16" height="16" viewBox="0 0 16 16" fill="none" xmlns="http://www.w3.org/2000/svg">
<path d="M0 0.533333C0 0.391885 0.0561921 0.256229 0.156215 0.15621C0.256237 0.0561903 0.391897 0 0.53335 0H2.1334C2.25237 3.28656e-05 2.36791 0.0398407 2.46166 0.113093C2.5554 0.186345 2.62196 0.288836 2.65075 0.404267L3.08276 2.13333H15.4671C15.5455 2.13341 15.6228 2.15072 15.6937 2.18405C15.7645 2.21739 15.8272 2.26591 15.8772 2.32619C15.9272 2.38647 15.9633 2.45701 15.9829 2.53282C16.0026 2.60862 16.0053 2.68783 15.9909 2.7648L14.3908 11.2981C14.368 11.4204 14.3031 11.5307 14.2075 11.6102C14.1118 11.6897 13.9914 11.7332 13.8671 11.7333H4.2668C4.14246 11.7332 4.02206 11.6897 3.92643 11.6102C3.83079 11.5307 3.76593 11.4204 3.74305 11.2981L2.14407 2.7808L1.71739 1.06667H0.53335C0.391897 1.06667 0.256237 1.01048 0.156215 0.910457C0.0561921 0.810438 0 0.674782 0 0.533333ZM3.3089 3.2L4.70948 10.6667H13.4244L14.825 3.2H3.3089ZM5.3335 11.7333C4.76769 11.7333 4.22505 11.9581 3.82496 12.3582C3.42487 12.7583 3.2001 13.3009 3.2001 13.8667C3.2001 14.4325 3.42487 14.9751 3.82496 15.3752C4.22505 15.7752 4.76769 16 5.3335 16C5.89931 16 6.44195 15.7752 6.84204 15.3752C7.24213 14.9751 7.4669 14.4325 7.4669 13.8667C7.4669 13.3009 7.24213 12.7583 6.84204 12.3582C6.44195 11.9581 5.89931 11.7333 5.3335 11.7333ZM12.8004 11.7333C12.2346 11.7333 11.6919 11.9581 11.2919 12.3582C10.8918 12.7583 10.667 13.3009 10.667 13.8667C10.667 14.4325 10.8918 14.9751 11.2919 15.3752C11.6919 15.7752 12.2346 16 12.8004 16C13.3662 16 13.9088 15.7752 14.3089 15.3752C14.709 14.9751 14.9338 14.4325 14.9338 13.8667C14.9338 13.3009 14.709 12.7583 14.3089 12.3582C13.9088 11.9581 13.3662 11.7333 12.8004 11.7333ZM5.3335 12.8C5.6164 12.8 5.88772 12.9124 6.08777 13.1124C6.28781 13.3125 6.4002 13.5838 6.4002 13.8667C6.4002 14.1496 6.28781 14.4209 6.08777 14.6209C5.88772 14.821 5.6164 14.9333 5.3335 14.9333C5.05059 14.9333 4.77927 14.821 4.57923 14.6209C4.37918 14.4209 4.2668 14.1496 4.2668 13.8667C4.2668 13.5838 4.37918 13.3125 4.57923 13.1124C4.77927 12.9124 5.05059 12.8 5.3335 12.8ZM12.8004 12.8C13.0833 12.8 13.3546 12.9124 13.5547 13.1124C13.7547 13.3125 13.8671 13.5838 13.8671 13.8667C13.8671 14.1496 13.7547 14.4209 13.5547 14.6209C13.3546 14.821 13.0833 14.9333 12.8004 14.9333C12.5175 14.9333 12.2462 14.821 12.0461 14.6209C11.8461 14.4209 11.7337 14.1496 11.7337 13.8667C11.7337 13.5838 11.8461 13.3125 12.0461 13.1124C12.2462 12.9124 12.5175 12.8 12.8004 12.8Z" fill="#272727"/>
</svg>
