<svg width="107" height="50" viewBox="0 0 107 50" fill="none" xmlns="http://www.w3.org/2000/svg">
<g clip-path="url(#clip0_268_4852)">
<path d="M106.982 43.119H0.0322876V31.2608L3.37297 33.866L17.2538 16.4053L22.0786 20.1841L27.3354 13.5292L10.1067 0.0112305H106.982V43.119ZM43.5616 41.5247H105.391V1.58832H43.5616V41.5247Z" fill="#F34743"/>
<path d="M8.83575 24.8002L0 21.4036C0 19.9206 0 18.4352 0 16.9475C0 16.7935 0.0803772 16.683 0.167213 16.5732C2.32974 13.8487 4.49275 11.1249 6.65624 8.40181C6.71267 8.34091 6.77283 8.28353 6.83637 8.22998L16.1773 15.5579L8.83575 24.8002Z" fill="#F34743"/>
<path d="M20.5385 10.0749L17.0256 14.4889L7.65662 7.13528L11.1588 2.7334L20.5385 10.0749Z" fill="#F34743"/>
<path d="M0.112672 2.94935L5.72974 7.36407L0.0444946 14.5209V0.00976562H2.4228L0.112672 2.94935Z" fill="#F34743"/>
<path d="M10.1605 1.78956L6.58231 6.29198L2.03094 2.72213L4.18032 0H7.8748L10.1605 1.78956Z" fill="#F34743"/>
<path d="M25.4143 13.7602L21.8518 18.2711L18.1042 15.3358L21.681 10.8306L25.4143 13.7602Z" fill="#F34743"/>
<path d="M0.0215454 24.4448V22.8691L7.8942 25.8986C7.64805 26.3741 7.3086 26.7199 6.97704 27.1177L0.0215454 24.4448Z" fill="#F34743"/>
<path d="M0.0251465 25.9023L6.05344 28.2216C5.87977 28.6245 5.55826 28.8754 5.31067 29.2362L0.0251465 27.2035V25.9023Z" fill="#F34743"/>
<path d="M4.42646 30.3521L3.14689 31.9534L0.0136108 29.5086V28.6616L4.42646 30.3521Z" fill="#F34743"/>
<path d="M51.1436 19.8299V7.28662H60.252V10.2433H54.4799V19.8299H51.1436Z" fill="#F34743"/>
<path d="M71.4338 7.28662V19.8299H68.0967V10.2433H65.3696C64.9728 15.386 64.3412 19.9732 60.7164 19.9911C60.1894 19.9883 59.6661 19.9036 59.1655 19.7401V16.8554C59.4464 16.9372 59.7411 16.9614 60.0317 16.9267C62.0699 16.7128 62.034 11.0853 62.3225 7.28662H71.4338Z" fill="#F34743"/>
<path d="M72.6402 19.8299L77.6006 7.28662H81.2075L86.168 19.8299H82.7412L82.0199 17.8586H76.789L76.0677 19.8299H72.6402ZM77.7807 15.1707H81.0274L79.7313 11.5502C79.5786 11.1387 79.4696 10.7123 79.4062 10.2783C79.3431 10.7124 79.2341 11.1387 79.0811 11.5502L77.7807 15.1707Z" fill="#F34743"/>
<path d="M93.0739 7.28662C95.8333 7.28662 97.4932 8.28977 97.4932 10.4586C97.4932 11.8382 96.8258 12.7523 95.6173 13.1822C96.9701 13.5765 97.9985 14.544 97.9985 16.2822C97.9985 19.1341 95.257 19.8299 92.8579 19.8299H87.3743V7.28662H93.0739ZM92.9656 14.616H90.6935V17.2319H92.9656C93.976 17.2319 94.6427 16.9096 94.6427 15.9236C94.6427 14.9375 93.976 14.616 92.9656 14.616ZM92.7675 9.8854H90.7114V12.1969L92.7675 12.2147C93.6538 12.2147 94.1561 11.7641 94.1561 11.0511C94.1561 10.3381 93.6538 9.8854 92.7675 9.8854Z" fill="#F34743"/>
<path d="M51.1185 36.2039V23.6606H54.4556V28.409H56.043L58.9136 23.6606H62.6081L58.6402 29.7708L62.789 36.2039H59.0909L56.0243 31.3657H54.4548V36.2039H51.1185Z" fill="#F34743"/>
<path d="M68.8467 23.6606C71.967 23.6606 74.3482 24.6638 74.3482 27.9613C74.3482 31.2588 71.967 32.2441 68.8467 32.2619H67.1874V36.2039H63.8503V23.6606H68.8467ZM69.0089 26.5275H67.1874V29.3944H69.0089C70.0193 29.3944 70.9207 29.0899 70.9207 27.9606C70.9207 26.8312 70.0193 26.5282 69.0089 26.5282V26.5275Z" fill="#F34743"/>
<path d="M85.024 23.6606V26.5275H79.2699V28.4475H84.4829V31.2994H79.2699V33.3421H85.1316V36.209H75.9342V23.6606H85.024Z" fill="#F34743"/>
<path d="M87.0607 36.2039V23.6606H98.4241V36.2039H95.0891V26.6173H90.3993V36.2039H87.0607Z" fill="#F34743"/>
<path d="M1.8164 46.7217C2.95244 46.7217 3.52441 47.461 3.52441 48.3615C3.52441 49.262 2.95029 50.0014 1.8164 50.0014C0.682506 50.0014 0.107666 49.2627 0.107666 48.3615C0.107666 47.4603 0.680354 46.7217 1.8164 46.7217ZM1.8164 47.6578C1.41092 47.6578 1.17625 47.9309 1.17625 48.3608C1.17625 48.7907 1.41092 49.0638 1.8164 49.0638C2.22187 49.0638 2.45655 48.7907 2.45655 48.3608C2.45655 47.9309 2.22474 47.6578 1.8164 47.6578Z" fill="#F34743"/>
<path d="M5.26831 49.9286V46.7915H8.22504V49.9286H7.18875V47.6977H6.30532V49.9279L5.26831 49.9286Z" fill="#F34743"/>
<path d="M12.6465 46.7939V47.698H11.7989V49.9282H10.7648V47.698H9.9151V46.7939H12.6465Z" fill="#F34743"/>
<path d="M15.8235 46.7217C16.9596 46.7217 17.5316 47.461 17.5316 48.3615C17.5316 49.262 16.9574 50.0014 15.8235 50.0014C14.6896 50.0014 14.1148 49.2627 14.1148 48.3615C14.1148 47.4603 14.6875 46.7217 15.8235 46.7217ZM15.8235 47.6578C15.4181 47.6578 15.1834 47.9309 15.1834 48.3608C15.1834 48.7907 15.4181 49.0638 15.8235 49.0638C16.229 49.0638 16.4637 48.7907 16.4637 48.3608C16.4637 47.9309 16.229 47.6578 15.8235 47.6578Z" fill="#F34743"/>
<path d="M20.8529 46.7936C21.5648 46.7936 21.971 47.0396 21.971 47.5865C21.971 47.9087 21.8446 48.1369 21.5203 48.2631C21.8899 48.375 22.0944 48.6303 22.0944 49.0331C22.0944 49.7461 21.4722 49.9286 20.8098 49.9286H19.2755V46.7915L20.8529 46.7936ZM20.7093 47.5551H20.3168V48.0164L20.7086 48.0214C20.8844 48.0214 20.9698 47.9137 20.9698 47.789C20.9698 47.6642 20.8837 47.5551 20.7086 47.5551H20.7093ZM20.7588 48.6566H20.3168V49.1671H20.7588C20.9569 49.1671 21.061 49.0773 21.061 48.9119C21.061 48.7465 20.9555 48.6566 20.7581 48.6566H20.7588Z" fill="#F34743"/>
<path d="M23.8261 49.9286V46.7915H24.8674V47.6877H25.2054C25.931 47.6877 26.569 47.9251 26.569 48.8071C26.569 49.689 25.9331 49.9264 25.2054 49.9264L23.8261 49.9286ZM24.8674 49.078H25.1896C25.3748 49.078 25.5327 49.0017 25.5327 48.8092C25.5327 48.6167 25.3748 48.5404 25.1896 48.5404H24.861L24.8674 49.078ZM26.7606 49.9286V46.7915H27.8019V49.9286H26.7606Z" fill="#F34743"/>
<path d="M32.0619 46.7936V47.6086H30.7156V47.9715H31.9011V48.7329H30.7156V49.1044H32.0906V49.9286H29.6721V46.7915L32.0619 46.7936Z" fill="#F34743"/>
<path d="M36.0901 49.9286V46.7915H39.0468V49.9286H38.0105V47.6977H37.1271V49.9279L36.0901 49.9286Z" fill="#F34743"/>
<path d="M42.4987 46.7217C43.6348 46.7217 44.2067 47.461 44.2067 48.3615C44.2067 49.262 43.6326 50.0014 42.4987 50.0014C41.3648 50.0014 40.79 49.2627 40.79 48.3615C40.79 47.4603 41.3627 46.7217 42.4987 46.7217ZM42.4987 47.6578C42.0932 47.6578 41.8586 47.9309 41.8586 48.3608C41.8586 48.7907 42.0932 49.0638 42.4987 49.0638C42.9042 49.0638 43.1389 48.7907 43.1389 48.3608C43.1389 47.9309 42.9049 47.6578 42.4987 47.6578Z" fill="#F34743"/>
<path d="M47.551 46.7217C47.8704 46.7193 48.1868 46.7834 48.4797 46.91V47.8326C48.257 47.6928 47.9989 47.6186 47.7355 47.6187C47.3049 47.6187 46.8929 47.8326 46.8929 48.393C46.8929 48.8856 47.2984 49.0917 47.7132 49.0917C48.0376 49.0917 48.3397 49.0111 48.5027 48.8678V49.8132C48.2121 49.9399 47.8977 50.0036 47.5805 50C46.6877 50 45.8265 49.5344 45.8265 48.3922C45.8201 47.1987 46.6855 46.7217 47.551 46.7217Z" fill="#F34743"/>
<path d="M52.8243 46.7939V47.698H51.9768V49.9282H50.9398V47.698H50.0922V46.7939H52.8243Z" fill="#F34743"/>
<path d="M53.8735 49.9286L55.0548 46.7915H56.1729L57.3491 49.9286H56.2942L56.1593 49.5122H55.0684L54.9285 49.9286H53.8735ZM55.3088 48.7643H55.926L55.705 48.097C55.6635 47.9654 55.6333 47.8307 55.6146 47.6941C55.5951 47.8301 55.5665 47.9647 55.5292 48.097L55.3088 48.7643Z" fill="#F34743"/>
<path d="M60.5484 46.7936C61.2603 46.7936 61.6665 47.0396 61.6665 47.5865C61.6665 47.9087 61.5402 48.1369 61.2158 48.2631C61.5854 48.375 61.7899 48.6303 61.7899 49.0331C61.7899 49.7461 61.1677 49.9286 60.5053 49.9286H58.971V46.7915L60.5484 46.7936ZM60.4049 47.5551H60.013V48.0164L60.4049 48.0214C60.5807 48.0214 60.6661 47.9137 60.6661 47.789C60.6661 47.6642 60.58 47.5551 60.4041 47.5551H60.4049ZM60.4544 48.6566H60.0123V49.1671H60.4544C60.6525 49.1671 60.7565 49.0773 60.7565 48.9119C60.7565 48.7465 60.6517 48.6566 60.4537 48.6566H60.4544Z" fill="#F34743"/>
<path d="M63.5181 49.9286V46.7915H64.5594V47.9045H64.8206L65.45 46.7936H66.5982L65.638 48.3479L66.6162 49.9286H65.4679L64.7962 48.8092H64.5572V49.9286H63.5181Z" fill="#F34743"/>
<path d="M70.1148 49.9286V48.9882C70.1132 48.8117 70.1223 48.6353 70.1421 48.4599L69.0735 49.9286H68.1958V46.7915H69.2371V47.7276C69.2389 47.9072 69.2298 48.0867 69.2098 48.2652L70.2784 46.7915H71.1576V49.9286H70.1148Z" fill="#F34743"/>
<path d="M75.2488 49.9286V46.7915H76.2902V47.9045H76.5514L77.1822 46.7936H78.3304L77.3702 48.3479L78.3484 49.9286H77.2001L76.5284 48.8092H76.2894V49.9286H75.2488Z" fill="#F34743"/>
<path d="M81.3058 46.7936C82.1082 46.7936 82.7211 47.071 82.7211 47.9537C82.7211 48.8363 82.1082 49.1094 81.3058 49.1094H80.9678V49.9286H79.9265V46.7915L81.3058 46.7936ZM81.2965 47.6442H80.9671V48.2581H81.2965C81.5355 48.2581 81.6891 48.1683 81.6891 47.9537C81.6891 47.739 81.5362 47.6442 81.2972 47.6442H81.2965Z" fill="#F34743"/>
<path d="M86.8275 46.7936V47.6086H85.4797V47.9715H86.6653V48.7329H85.4797V49.1044H86.8548V49.9286H84.4384V46.7915L86.8275 46.7936Z" fill="#F34743"/>
<path d="M88.6381 49.9286V46.7915H91.5956V49.9286H90.5586V47.6977H89.6751V49.9279L88.6381 49.9286Z" fill="#F34743"/>
<path d="M95.8592 46.7936V47.6086H94.5114V47.9715H95.697V48.7329H94.5114V49.1044H95.8864V49.9286H93.4701V46.7915L95.8592 46.7936Z" fill="#F34743"/>
<path d="M97.4086 49.9289L98.2518 48.3482L97.4265 46.7939H98.5748L99.0929 47.9048H99.2687V46.7939H100.31V47.9048H100.486L101 46.7939H102.144L101.324 48.3482L102.167 49.9289H101.018L100.459 48.8095H100.306V49.9289H99.2659V48.8095H99.108L98.5539 49.9289H97.4086Z" fill="#F34743"/>
<path d="M103.524 49.9286L104.706 46.7915H105.823L107 49.9286H105.945L105.81 49.5122H104.719L104.579 49.9286H103.524ZM104.96 48.7643H105.578L105.352 48.097C105.31 47.9654 105.28 47.8307 105.261 47.6941C105.242 47.8302 105.213 47.9647 105.176 48.097L104.96 48.7643Z" fill="#F34743"/>
</g>
<defs>
<clipPath id="clip0_268_4852">
<rect width="107" height="50" fill="white"/>
</clipPath>
</defs>
</svg>
