<svg width="20" height="14" viewBox="0 0 20 14" fill="none" xmlns="http://www.w3.org/2000/svg">
<path d="M13.75 9.5C13.5511 9.5 13.3603 9.57902 13.2197 9.71967C13.079 9.86032 13 10.0511 13 10.25C13 10.4489 13.079 10.6397 13.2197 10.7803C13.3603 10.921 13.5511 11 13.75 11H16.25C16.4489 11 16.6397 10.921 16.7803 10.7803C16.921 10.6397 17 10.4489 17 10.25C17 10.0511 16.921 9.86032 16.7803 9.71967C16.6397 9.57902 16.4489 9.5 16.25 9.5H13.75ZM2.75 0C2.02065 0 1.32118 0.289731 0.805456 0.805456C0.289731 1.32118 0 2.02065 0 2.75V11.25C0 11.9793 0.289731 12.6788 0.805456 13.1945C1.32118 13.7103 2.02065 14 2.75 14H17.25C17.9793 14 18.6788 13.7103 19.1945 13.1945C19.7103 12.6788 20 11.9793 20 11.25V2.75C20 2.02065 19.7103 1.32118 19.1945 0.805456C18.6788 0.289731 17.9793 0 17.25 0H2.75ZM1.5 11.25V6H18.5V11.25C18.5 11.94 17.94 12.5 17.25 12.5H2.75C2.06 12.5 1.5 11.94 1.5 11.25ZM1.5 4.5V2.75C1.5 2.06 2.06 1.5 2.75 1.5H17.25C17.94 1.5 18.5 2.06 18.5 2.75V4.5H1.5Z" fill="#F34743"/>
</svg>
