<svg width="16" height="16" viewBox="0 0 16 16" fill="none" xmlns="http://www.w3.org/2000/svg">
<path d="M15.0175 11.297C14.991 11.275 11.9965 9.132 11.184 9.2725C10.7935 9.3415 10.57 9.6075 10.1225 10.141C10.0505 10.227 9.877 10.4325 9.743 10.579C9.46016 10.4869 9.18429 10.3746 8.9175 10.243C7.54026 9.5725 6.4275 8.45974 5.757 7.0825C5.62543 6.81571 5.51315 6.53984 5.421 6.257C5.568 6.1225 5.774 5.949 5.862 5.875C6.3925 5.43 6.6585 5.2065 6.7275 4.8155C6.869 4.006 4.725 1.009 4.703 0.982C4.60536 0.843528 4.4782 0.728462 4.33069 0.645108C4.18317 0.561755 4.01899 0.512193 3.85 0.5C2.981 0.5 0.5 3.718 0.5 4.2605C0.5 4.292 0.5455 7.494 4.494 11.5105C8.506 15.4545 11.708 15.5 11.7395 15.5C12.282 15.5 15.5 13.019 15.5 12.15C15.4878 11.9809 15.4382 11.8167 15.3548 11.6692C15.2713 11.5217 15.1561 11.3945 15.0175 11.297ZM11.6845 14.497C11.2475 14.461 8.5605 14.1065 5.201 10.806C1.8835 7.4285 1.538 4.734 1.5035 4.3165C2.15889 3.28782 2.9504 2.35251 3.8565 1.536C3.8765 1.556 3.903 1.586 3.937 1.625C4.63191 2.57361 5.23054 3.58913 5.724 4.6565C5.56353 4.81794 5.39392 4.97002 5.216 5.112C4.9401 5.32223 4.68674 5.5605 4.46 5.823L4.3385 5.993L4.3745 6.1985C4.48031 6.65686 4.64238 7.10039 4.857 7.519C5.62594 9.09801 6.90188 10.3738 8.481 11.1425C8.89952 11.3574 9.34307 11.5197 9.8015 11.6255L10.007 11.6615L10.177 11.54C10.4405 11.3123 10.6798 11.0579 10.891 10.781C11.0475 10.594 11.257 10.3445 11.336 10.274C12.4064 10.767 13.4245 11.3663 14.375 12.063C14.4165 12.098 14.4455 12.125 14.465 12.1425C13.6486 13.0489 12.7133 13.8406 11.6845 14.496V14.497Z" fill="#F34743"/>
</svg>
