<svg width="8" height="9" viewBox="0 0 8 9" fill="none" xmlns="http://www.w3.org/2000/svg">
<path fill-rule="evenodd" clip-rule="evenodd" d="M4 9C3.84847 9 3.70316 8.94074 3.59601 8.83527C3.48887 8.72979 3.42867 8.58673 3.42867 8.43756L3.42867 1.92117L0.976545 4.33627C0.923426 4.38856 0.860364 4.43005 0.79096 4.45835C0.721556 4.48665 0.647169 4.50121 0.572047 4.50121C0.496924 4.50121 0.422537 4.48665 0.353134 4.45835C0.28373 4.43005 0.220668 4.38856 0.167548 4.33627C0.114429 4.28398 0.0722919 4.2219 0.0435438 4.15357C0.0147958 4.08525 0 4.01202 0 3.93807C0 3.86411 0.0147958 3.79088 0.0435438 3.72256C0.0722919 3.65423 0.114429 3.59215 0.167548 3.53986L3.5955 0.165236C3.64857 0.112859 3.71162 0.0713034 3.78103 0.0429487C3.85044 0.014595 3.92485 0 4 0C4.07515 0 4.14956 0.014595 4.21897 0.0429487C4.28838 0.0713034 4.35143 0.112859 4.4045 0.165236L7.83245 3.53986C7.88557 3.59215 7.92771 3.65423 7.95646 3.72256C7.9852 3.79088 8 3.86411 8 3.93807C8 4.01202 7.9852 4.08525 7.95646 4.15357C7.92771 4.2219 7.88557 4.28398 7.83245 4.33627C7.72517 4.44188 7.57967 4.50121 7.42795 4.50121C7.35283 4.50121 7.27844 4.48665 7.20904 4.45835C7.13964 4.43005 7.07657 4.38856 7.02345 4.33627L4.57133 1.92117L4.57133 8.43756C4.57133 8.58673 4.51113 8.72979 4.40399 8.83527C4.29684 8.94074 4.15152 9 4 9Z" fill="#F34743"/>
</svg>
