<svg width="22" height="22" viewBox="0 0 22 22" fill="none" xmlns="http://www.w3.org/2000/svg">
<path d="M0 0V22H22V0H0ZM9.76598 5.88269C10.3889 5.87624 10.9982 5.9453 11.2954 5.95386C12.3972 5.98558 12.5918 6.54285 12.5777 7.00122C12.5571 7.67254 12.1252 10.5122 12.9255 10.7892C14.0917 10.1656 14.8737 8.22877 15.4432 7.00122C15.7313 6.38031 15.6857 6.34946 16.3496 6.34863L18.9868 6.3446C19.6219 6.34381 19.5971 6.32153 19.8005 6.58093C20.2737 7.18425 18.3073 9.69382 17.6722 10.3877C16.5002 11.6682 17.184 12.1641 17.3728 12.3401C18.2475 13.1556 19.0926 14.0013 19.6179 14.7812C20.0355 15.4013 19.863 15.9786 19.3319 16.0005L16.504 16.1173C15.5656 16.1559 14.1064 14.4737 13.8735 14.1072C13.6852 13.8049 12.7774 13.426 12.6919 14.1985L12.5724 15.2767C12.4856 16.0474 11.9165 16.0295 11.4673 16.0488C8.35668 16.1826 7.29736 14.9983 5.73093 13.2504C4.58287 11.6268 3.48729 9.99389 2.57945 8.03777C2.30771 7.45224 2.16377 7.02271 2.12692 6.56744C2.58372 6.21042 4.18709 6.3642 5.26365 6.34051C5.5581 6.33402 5.75678 6.50274 5.91221 6.83868C6.51869 8.14975 7.18012 9.43723 8.05528 10.5756C8.43641 10.9267 8.77334 11.0558 8.94151 10.342C9.03916 10.333 9.03131 9.15099 9.03685 8.25933C9.04064 7.64711 8.96872 6.91291 7.93175 6.57415C8.1415 6.02435 8.96511 5.89099 9.76598 5.88269Z" fill="black"/>
</svg>
