<svg width="19" height="19" viewBox="0 0 19 19" fill="none" xmlns="http://www.w3.org/2000/svg">
<g clip-path="url(#clip0_228_374)">
<path d="M9.72087 1.32186C9.57911 1.26504 9.42089 1.26504 9.27913 1.32186L2.19212 4.15642L5.04688 5.29761L12.3548 2.37517L9.72087 1.32186ZM13.9531 3.01523L6.64525 5.93767L9.5 7.07886L16.8079 4.15642L13.9531 3.01523ZM17.8125 5.03398L10.0938 8.12148V17.5289L17.8125 14.4414V5.03517V5.03398ZM8.90625 17.53V8.12029L1.1875 5.03398V14.4425L8.90625 17.53ZM8.83856 0.218669C9.26317 0.0488552 9.73683 0.0488552 10.1614 0.218669L18.6271 3.60542C18.7372 3.64953 18.8315 3.72558 18.898 3.82379C18.9644 3.92199 19 4.03784 19 4.15642V14.4425C18.9998 14.6798 18.9286 14.9116 18.7955 15.1081C18.6623 15.3045 18.4734 15.4565 18.2531 15.5445L9.72087 18.9574C9.57911 19.0142 9.42089 19.0142 9.27913 18.9574L0.748125 15.5445C0.527548 15.4567 0.338369 15.3047 0.205012 15.1083C0.0716558 14.9119 0.000245016 14.68 0 14.4425L0 4.15642C2.75974e-05 4.03784 0.0355582 3.92199 0.102015 3.82379C0.168471 3.72558 0.262809 3.64953 0.372875 3.60542L8.83856 0.218669Z" fill="#F34743"/>
</g>
<defs>
<clipPath id="clip0_228_374">
<rect width="19" height="19" fill="white"/>
</clipPath>
</defs>
</svg>
