<svg width="18" height="20" viewBox="0 0 18 20" fill="none" xmlns="http://www.w3.org/2000/svg">
<path d="M15.875 1.75V18.25H2.125V1.75H15.875ZM15.875 0.375H2.125C1.76033 0.375 1.41059 0.519866 1.15273 0.777728C0.894866 1.03559 0.75 1.38533 0.75 1.75V18.25C0.75 18.6147 0.894866 18.9644 1.15273 19.2223C1.41059 19.4801 1.76033 19.625 2.125 19.625H15.875C16.2397 19.625 16.5894 19.4801 16.8473 19.2223C17.1051 18.9644 17.25 18.6147 17.25 18.25V1.75C17.25 1.38533 17.1051 1.03559 16.8473 0.777728C16.5894 0.519866 16.2397 0.375 15.875 0.375Z" fill="#F34743"/>
<path d="M4.1875 14.8125H5.5625V16.1875H4.1875V14.8125ZM12.4375 14.8125H13.8125V16.1875H12.4375V14.8125ZM4.1875 11.375H5.5625V12.75H4.1875V11.375ZM12.4375 11.375H13.8125V12.75H12.4375V11.375ZM4.1875 7.9375H5.5625V9.3125H4.1875V7.9375ZM8.3125 14.8125H9.6875V16.1875H8.3125V14.8125ZM8.3125 11.375H9.6875V12.75H8.3125V11.375ZM8.3125 7.9375H9.6875V9.3125H8.3125V7.9375ZM12.4375 7.9375H13.8125V9.3125H12.4375V7.9375ZM4.1875 3.8125H13.8125V5.875H4.1875V3.8125Z" fill="#F34743"/>
</svg>
