<svg width="16" height="16" viewBox="0 0 16 16" fill="none" xmlns="http://www.w3.org/2000/svg">
<path d="M0.296754 0.845898C0.296754 0.700029 0.354701 0.560135 0.457846 0.45699C0.560991 0.353845 0.700885 0.295898 0.846754 0.295898H1.32855C2.12825 0.295898 2.58805 0.816198 2.85425 1.3354C3.03575 1.6907 3.16665 2.1241 3.27555 2.5003H14.6001C14.77 2.50035 14.9377 2.53979 15.0898 2.61552C15.242 2.69125 15.3745 2.80121 15.4771 2.93677C15.5796 3.07234 15.6493 3.22982 15.6807 3.39685C15.7122 3.56389 15.7045 3.73594 15.6583 3.8995L14.0127 9.702C13.8818 10.1624 13.6043 10.5675 13.2224 10.8559C12.8404 11.1443 12.3749 11.3004 11.8963 11.3003H6.30935C5.82676 11.3005 5.35749 11.1419 4.97386 10.8491C4.59023 10.5564 4.31352 10.1455 4.18635 9.68L3.48015 7.0895C3.4761 7.07789 3.47244 7.06615 3.46915 7.0543L2.33505 3.2076L2.22505 2.8369C2.11505 2.4563 2.01825 2.1197 1.87305 1.837C1.69815 1.496 1.53755 1.397 1.32745 1.397H0.845654C0.699785 1.397 0.55989 1.33905 0.456745 1.23591C0.3536 1.13276 0.295654 0.992867 0.295654 0.846998L0.296754 0.845898ZM4.52955 6.7573L5.24785 9.3929C5.31154 9.62557 5.44994 9.83085 5.64174 9.97714C5.83355 10.1234 6.06813 10.2026 6.30935 10.2025H11.8974C12.1365 10.2023 12.3691 10.1241 12.5599 9.97975C12.7506 9.83545 12.8892 9.6329 12.9545 9.4028L14.6001 3.6003H3.60005L4.52955 6.7562V6.7573ZM8.00005 14.0492C8.00005 14.4868 7.82621 14.9065 7.51678 15.2159C7.20735 15.5254 6.78766 15.6992 6.35005 15.6992C5.91245 15.6992 5.49276 15.5254 5.18333 15.2159C4.87389 14.9065 4.70005 14.4868 4.70005 14.0492C4.70005 13.6116 4.87389 13.1919 5.18333 12.8825C5.49276 12.573 5.91245 12.3992 6.35005 12.3992C6.78766 12.3992 7.20735 12.573 7.51678 12.8825C7.82621 13.1919 8.00005 13.6116 8.00005 14.0492ZM6.90005 14.0492C6.90005 13.9033 6.84211 13.7634 6.73896 13.6603C6.63582 13.5571 6.49592 13.4992 6.35005 13.4992C6.20418 13.4992 6.06429 13.5571 5.96114 13.6603C5.858 13.7634 5.80005 13.9033 5.80005 14.0492C5.80005 14.1951 5.858 14.335 5.96114 14.4381C6.06429 14.5413 6.20418 14.5992 6.35005 14.5992C6.49592 14.5992 6.63582 14.5413 6.73896 14.4381C6.84211 14.335 6.90005 14.1951 6.90005 14.0492ZM13.5001 14.0492C13.5001 14.4868 13.3262 14.9065 13.0168 15.2159C12.7073 15.5254 12.2877 15.6992 11.8501 15.6992C11.4124 15.6992 10.9928 15.5254 10.6833 15.2159C10.3739 14.9065 10.2001 14.4868 10.2001 14.0492C10.2001 13.6116 10.3739 13.1919 10.6833 12.8825C10.9928 12.573 11.4124 12.3992 11.8501 12.3992C12.2877 12.3992 12.7073 12.573 13.0168 12.8825C13.3262 13.1919 13.5001 13.6116 13.5001 14.0492ZM12.4001 14.0492C12.4001 13.9033 12.3421 13.7634 12.239 13.6603C12.1358 13.5571 11.9959 13.4992 11.8501 13.4992C11.7042 13.4992 11.5643 13.5571 11.4611 13.6603C11.358 13.7634 11.3001 13.9033 11.3001 14.0492C11.3001 14.1951 11.358 14.335 11.4611 14.4381C11.5643 14.5413 11.7042 14.5992 11.8501 14.5992C11.9959 14.5992 12.1358 14.5413 12.239 14.4381C12.3421 14.335 12.4001 14.1951 12.4001 14.0492Z" fill="#F34743"/>
</svg>
