<svg width="12" height="14" viewBox="0 0 12 14" fill="none" xmlns="http://www.w3.org/2000/svg">
<path d="M11.2891 10.9312C10.9943 10.2331 10.5666 9.59891 10.0297 9.06406C9.49446 8.52767 8.86039 8.10001 8.16254 7.80469C8.15629 7.80156 8.15004 7.8 8.14379 7.79688C9.11722 7.09375 9.75004 5.94844 9.75004 4.65625C9.75004 2.51562 8.01566 0.78125 5.87504 0.78125C3.73441 0.78125 2.00004 2.51562 2.00004 4.65625C2.00004 5.94844 2.63285 7.09375 3.60629 7.79844C3.60004 7.80156 3.59379 7.80312 3.58754 7.80625C2.88754 8.10156 2.25941 8.525 1.72035 9.06563C1.18396 9.60089 0.756296 10.235 0.460976 10.9328C0.170855 11.616 0.0143858 12.3485 3.90719e-05 13.0906C-0.000377967 13.1073 0.00254707 13.1239 0.00864193 13.1394C0.0147368 13.1549 0.0238781 13.1691 0.0355272 13.181C0.0471763 13.193 0.0610975 13.2025 0.0764706 13.2089C0.0918436 13.2154 0.108357 13.2188 0.125039 13.2188H1.06254C1.13129 13.2188 1.18598 13.1641 1.18754 13.0969C1.21879 11.8906 1.70316 10.7609 2.55941 9.90469C3.44535 9.01875 4.62191 8.53125 5.87504 8.53125C7.12816 8.53125 8.30472 9.01875 9.19066 9.90469C10.0469 10.7609 10.5313 11.8906 10.5625 13.0969C10.5641 13.1656 10.6188 13.2188 10.6875 13.2188H11.625C11.6417 13.2188 11.6582 13.2154 11.6736 13.2089C11.689 13.2025 11.7029 13.193 11.7145 13.181C11.7262 13.1691 11.7353 13.1549 11.7414 13.1394C11.7475 13.1239 11.7505 13.1073 11.75 13.0906C11.7344 12.3438 11.5797 11.6172 11.2891 10.9312ZM5.87504 7.34375C5.15785 7.34375 4.48285 7.06406 3.97504 6.55625C3.46723 6.04844 3.18754 5.37344 3.18754 4.65625C3.18754 3.93906 3.46723 3.26406 3.97504 2.75625C4.48285 2.24844 5.15785 1.96875 5.87504 1.96875C6.59222 1.96875 7.26722 2.24844 7.77504 2.75625C8.28285 3.26406 8.56254 3.93906 8.56254 4.65625C8.56254 5.37344 8.28285 6.04844 7.77504 6.55625C7.26722 7.06406 6.59222 7.34375 5.87504 7.34375Z" fill="#F34743"/>
</svg>
