<svg width="17" height="20" viewBox="0 0 17 20" fill="none" xmlns="http://www.w3.org/2000/svg">
<path d="M12.1426 8.75023C12.1426 9.74477 11.7589 10.6986 11.0757 11.4018C10.3926 12.1051 9.46609 12.5002 8.5 12.5002C7.53391 12.5002 6.6074 12.1051 5.92427 11.4018C5.24114 10.6986 4.85737 9.74477 4.85737 8.75023C4.85737 7.75569 5.24114 6.80189 5.92427 6.09864C6.6074 5.39539 7.53391 5.00031 8.5 5.00031C9.46609 5.00031 10.3926 5.39539 11.0757 6.09864C11.7589 6.80189 12.1426 7.75569 12.1426 8.75023ZM10.9284 8.75023C10.9284 8.08721 10.6726 7.45133 10.2172 6.9825C9.76173 6.51367 9.14406 6.25029 8.5 6.25029C7.85594 6.25029 7.23826 6.51367 6.78285 6.9825C6.32743 7.45133 6.07158 8.08721 6.07158 8.75023C6.07158 9.41326 6.32743 10.0491 6.78285 10.518C7.23826 10.9868 7.85594 11.2502 8.5 11.2502C9.14406 11.2502 9.76173 10.9868 10.2172 10.518C10.6726 10.0491 10.9284 9.41326 10.9284 8.75023ZM14.5103 14.9439C16.1045 13.3019 17 11.0754 17 8.75398C17 6.43252 16.1045 4.20606 14.5103 2.56411C13.7212 1.75123 12.7843 1.10638 11.753 0.666414C10.7217 0.226451 9.61633 0 8.5 0C7.38367 0 6.27828 0.226451 5.247 0.666414C4.21572 1.10638 3.27876 1.75123 2.48966 2.56411C0.895513 4.20606 0 6.43252 0 8.75398C0 11.0754 0.895513 13.3019 2.48966 14.9439L4.33647 16.8176L6.8171 19.2988L6.97859 19.4463C7.91961 20.2312 9.29774 20.1812 10.1841 19.2988L13.1407 16.3363L14.5103 14.9439ZM3.34568 3.44534C4.02244 2.74833 4.82598 2.19542 5.71037 1.81818C6.59477 1.44094 7.54269 1.24678 8.5 1.24678C9.45731 1.24678 10.4052 1.44094 11.2896 1.81818C12.174 2.19542 12.9776 2.74833 13.6543 3.44534C14.9835 4.81463 15.7478 6.65943 15.7876 8.5948C15.8274 10.5302 15.1397 12.4066 13.868 13.8326L13.6543 14.0626L12.0504 15.6926L9.34266 18.4025L9.22853 18.5025C9.01859 18.6654 8.76287 18.7535 8.5 18.7535C8.23713 18.7535 7.98141 18.6654 7.77147 18.5025L7.65855 18.4025L4.04021 14.7714L3.34568 14.0626L3.13198 13.8339C1.86027 12.4079 1.17258 10.5314 1.2124 8.59605C1.25221 6.66068 2.01646 4.81588 3.34568 3.44659V3.44534Z" fill="#F24843"/>
</svg>
