<svg width="22" height="22" viewBox="0 0 22 22" fill="none" xmlns="http://www.w3.org/2000/svg">
<path fill-rule="evenodd" clip-rule="evenodd" d="M22 0H0V22H22V0ZM7.79997 8.2C7.79997 9.96 9.23997 11.4 11 11.4C12.76 11.4 14.2 9.96 14.2 8.2C14.2 6.44 12.76 5 11 5C9.23997 5 7.79997 6.44 7.79997 8.2ZM9.31997 8.2C9.31997 7.28 10.08 6.52 11 6.52C11.92 6.52 12.68 7.28 12.68 8.2C12.68 9.12 11.92 9.88 11 9.88C10.08 9.88 9.31997 9.12 9.31997 8.2ZM13.32 11.56C13.68 11.32 14.16 11.36 14.44 11.72C14.72 12.04 14.64 12.56 14.28 12.84C14.2733 12.84 14.2446 12.8576 14.195 12.8882C13.9457 13.0415 13.1676 13.5198 12 13.72L14.12 15.88C14.44 16.2 14.44 16.68 14.12 17C13.96 17.16 13.76 17.24 13.56 17.24C13.36 17.24 13.16 17.16 13 17L11 14.96L8.99997 17C8.83997 17.16 8.63997 17.24 8.43997 17.24C8.23997 17.24 8.03998 17.16 7.87997 17C7.55997 16.72 7.55997 16.2 7.87997 15.88L9.99998 13.72C8.59997 13.52 7.75997 12.88 7.71997 12.84C7.35997 12.56 7.27997 12.08 7.55997 11.72C7.83997 11.36 8.31997 11.28 8.67997 11.56C8.67997 11.56 9.55997 12.2 11 12.2C12.44 12.2 13.32 11.56 13.32 11.56Z" fill="black"/>
</svg>
