<svg width="22" height="22" viewBox="0 0 22 22" fill="none" xmlns="http://www.w3.org/2000/svg">
<path fill-rule="evenodd" clip-rule="evenodd" d="M22 0H0V22H22V0ZM6.4675 10.277L15.3325 6.8585C15.737 6.6755 16.128 6.956 15.9735 7.5755L14.464 14.6895C14.3585 15.1955 14.054 15.3155 13.63 15.082L11.3305 13.3835L10.225 14.4585C10.2209 14.4625 10.2168 14.4664 10.2127 14.4704C10.0894 14.5896 9.98714 14.6885 9.7645 14.6885L9.9215 12.3425L9.9205 12.342H9.9215L14.188 8.4915C14.375 8.3255 14.1475 8.244 13.8985 8.3955L8.6325 11.718L6.3565 11.008C5.866 10.8575 5.8625 10.52 6.4675 10.277Z" fill="black"/>
</svg>
